PathFileType	4	(X/Y/Z)	C:/Users/opensim2020/Desktop/walking_exp_matlab/subject02_walking12_straight_01.trc																																																																																																																												
DataRate	CameraRate	NumFrames	NumMarkers	Units	OrigDataRate	OrigDataStartFrame	OrigNumFrames																																																																																																																								
100	100	5	42	mm	100	630	178																																																																																																																								
Frame#	Time	LFHD			RFHD			LBHD			RBHD			C7			T10			CLAV			STRN			RBAK			LSHO			LUPA			LELB			LFRM			LWRA			LWRB			LFIN			RSHO			RUPA			RELB			RFRM			RWRA			RWRB			RFIN			LASI			RASI			LPSI			RPSI			LTHI			LKNE			LTIB			LANK			LHEE			LTOE			RTHI			RKNE			RTIB			RANK			RHEE			RTOE			*39			*40			*41		
		X1	Y1	Z1	X2	Y2	Z2	X3	Y3	Z3	X4	Y4	Z4	X5	Y5	Z5	X6	Y6	Z6	X7	Y7	Z7	X8	Y8	Z8	X9	Y9	Z9	X10	Y10	Z10	X11	Y11	Z11	X12	Y12	Z12	X13	Y13	Z13	X14	Y14	Z14	X15	Y15	Z15	X16	Y16	Z16	X17	Y17	Z17	X18	Y18	Z18	X19	Y19	Z19	X20	Y20	Z20	X21	Y21	Z21	X22	Y22	Z22	X23	Y23	Z23	X24	Y24	Z24	X25	Y25	Z25	X26	Y26	Z26	X27	Y27	Z27	X28	Y28	Z28	X29	Y29	Z29	X30	Y30	Z30	X31	Y31	Z31	X32	Y32	Z32	X33	Y33	Z33	X34	Y34	Z34	X35	Y35	Z35	X36	Y36	Z36	X37	Y37	Z37	X38	Y38	Z38	X39	Y39	Z39	X40	Y40	Z40	X41	Y41	Z41	X42	Y42	Z42
																																																																																																																															
134	1.33	381.76715	1736.18115	-1052.90308	345.31744	1707.14514	-914.88525	259.46686	1661.40576	-1100.14185	211.50519	1631.15063	-967.64575	185.27249	1515.56824	-1032.56177	138.834	1237.13538	-1020.98871	324.7059	1448.30261	-1042.10071	380.2674	1277.93054	-1037.92822	131.22536	1338.19055	-969.78058	259.34561	1493.20251	-1211.92944	261.1131	1295.79443	-1300.44922	282.93112	1155.30566	-1323.76038	351.28323	1038.25867	-1331.31519	459.41245	959.36499	-1296.41724	417.55753	934.72052	-1325.92053	467.02856	891.94318	-1330.24414	261.26666	1477.16309	-845.11884	218.86826	1289.48315	-764.26166	218.21712	1142.57739	-749.56799	234.34982	1023.6272	-729.62897	270.67905	892.53009	-747.39923	223.10027	894.60132	-715.65479	251.48878	827.0127	-713.56976	359.92413	970.17999	-1170.37549	391.06564	974.52252	-915.29199	161.52953	1020.12842	-1065.63367	169.01422	1024.29102	-950.51526	309.13388	660.94409	-1227.52783	293.18381	478.85971	-1215.72754	137.83226	381.18008	-1199.03857	-7.66504	216.9104	-1167.14636	-34.39231	212.98758	-1105.38171	48.50961	77.85336	-1214.83252	379.49637	669.01892	-855.94946	409.12338	466.09174	-915.24408	370.77579	280.11761	-914.61121	342.07144	92.43681	-962.91412	301.99576	40.90501	-1019.49652	491.95416	41.8129	-957.96899	258.6123	1793.99561	-987.46765	2845.93091	1034.12378	-3356.88818	NaN	NaN	NaN
135	1.34	394.95749	1738.43115	-1051.48865	358.31161	1709.13721	-913.52417	272.66422	1663.99146	-1099.32727	224.30972	1633.54443	-966.91479	198.11411	1518.08618	-1031.80823	151.41211	1239.61633	-1020.11145	337.55148	1450.67078	-1041.48059	392.82626	1280.17358	-1037.35925	143.89281	1340.7738	-968.69952	271.88443	1495.41528	-1211.02454	271.55356	1297.75867	-1299.1571	290.47333	1156.62927	-1320.76343	353.17352	1036.64111	-1329.10107	457.55795	952.00433	-1295.18811	414.29541	929.8161	-1324.38965	461.23734	884.17651	-1328.70435	274.53922	1479.90308	-844.45905	234.1671	1292.27124	-762.8855	234.19058	1145.099	-747.95239	252.92108	1026.68762	-727.77057	291.10336	896.19543	-745.79102	243.36461	897.37177	-714.03534	273.16763	830.52246	-711.81567	371.30573	974.09412	-1170.79504	402.59927	976.73273	-914.27435	173.76665	1022.62561	-1063.77502	181.31206	1026.49463	-949.0686	329.1629	664.20581	-1226.34045	317.80734	481.95947	-1213.5907	164.98801	381.76663	-1196.98889	23.0905	213.17297	-1167.46155	-5.24939	208.15089	-1106.24231	85.87015	77.18153	-1214.39001	386.31064	669.33228	-854.78174	412.28415	465.57797	-913.81396	372.53357	279.87271	-913.91809	342.04034	92.52281	-962.73151	301.84915	40.93059	-1019.45825	491.76425	41.77098	-957.6087	271.69348	1796.32141	-986.3313	2845.97974	1034.20813	-3356.91284	NaN	NaN	NaN
136	1.35	408.13782	1740.50586	-1050.35754	370.85892	1711.08337	-912.56238	285.80518	1666.35205	-1098.43286	236.80528	1635.98779	-966.33551	210.93936	1520.32996	-1031.1554	163.93222	1242.05334	-1019.13934	350.30972	1452.95679	-1040.88513	405.40155	1282.34253	-1036.79321	156.53232	1343.25195	-967.66229	284.38974	1497.71021	-1210.32458	282.24069	1299.57275	-1297.60461	298.19492	1158.10022	-1318.0686	354.67789	1035.39575	-1326.88953	454.88455	945.08362	-1293.55579	410.5882	925.4444	-1322.99988	454.66785	876.91162	-1327.20618	287.14465	1482.74744	-844.01587	249.22687	1295.0509	-761.56299	250.79944	1148.16626	-745.83411	271.11719	1029.54895	-726.18561	311.79776	899.95178	-744.29144	264.24344	900.32629	-712.35406	295.68307	834.40698	-709.8924	382.87637	978.14337	-1170.91553	413.92215	978.73328	-913.17291	186.1266	1025.11804	-1062.19531	193.50801	1028.68274	-947.55737	348.67789	667.54303	-1225.24048	341.96573	485.16577	-1211.44153	192.11542	381.47336	-1195.41028	54.6711	208.1841	-1167.82092	24.94995	201.96643	-1107.40332	124.635	75.74117	-1213.4032	392.77625	669.66193	-853.51373	415.09894	465.17172	-912.65717	373.7077	279.63541	-913.53717	342.08392	92.5507	-962.69336	301.82706	41.01548	-1019.51056	491.62561	41.66172	-957.23297	284.90237	1798.59583	-985.11603	2845.40747	1034.27832	-3360.29419	NaN	NaN	NaN
137	1.36	421.36111	1742.60193	-1049.63293	383.4949	1712.83533	-911.83679	298.86057	1668.63489	-1097.7146	249.43677	1638.1106	-965.77472	223.79289	1522.79871	-1030.34534	176.33192	1244.26917	-1018.25916	363.06284	1455.10938	-1040.35327	417.86969	1284.44031	-1036.14429	169.15706	1345.65564	-966.84277	296.8421	1499.91687	-1209.64331	293.11395	1301.23132	-1295.85571	306.00793	1159.55212	-1315.50574	356.24347	1034.2511	-1324.86206	451.77722	938.61102	-1292.15906	406.46951	921.6272	-1321.65637	447.58038	870.40131	-1325.82068	300.3898	1485.35962	-843.49731	264.10303	1297.72668	-760.22382	266.93805	1150.76355	-743.93439	290.07687	1032.66602	-724.47961	332.64099	903.84882	-742.87494	285.24185	903.10883	-710.69916	318.31155	838.19653	-708.05933	394.92706	982.16797	-1170.52759	424.88223	980.32477	-912.04584	198.6803	1027.52197	-1060.87012	204.9649	1031.01172	-946.11127	367.75366	671.00262	-1224.16992	365.72803	488.32053	-1209.23584	219.17412	380.26016	-1194.33472	86.89376	202.22664	-1168.21899	55.99203	194.57079	-1108.1709	164.39684	73.70212	-1212.20996	399.15756	669.83197	-852.39148	417.62479	464.77301	-911.60138	374.69669	279.4631	-913.15704	342.00833	92.62185	-962.84161	301.81552	41.10101	-1019.65607	491.5932	41.55694	-956.90967	297.90933	1800.59546	-984.30981	2845.08276	1034.35632	-3360.18628	NaN	NaN	NaN
138	1.37	434.26584	1744.32593	-1048.27393	396.27063	1714.62012	-910.94867	311.84564	1670.69983	-1097.02979	262.56058	1639.9209	-964.96704	236.57533	1524.95239	-1029.86646	188.83244	1246.39514	-1017.36664	375.77051	1457.17981	-1039.88416	430.38461	1286.39258	-1035.39526	181.68175	1347.90833	-965.99152	309.23822	1501.8811	-1209.16296	303.96494	1302.82336	-1294.49072	313.84027	1160.93665	-1313.07813	357.67712	1033.52478	-1322.94031	448.35742	932.58911	-1290.79358	402.12561	918.49371	-1320.49023	439.9429	864.61475	-1324.37146	313.1152	1487.99622	-843.02649	278.82178	1300.33325	-758.88141	283.10382	1153.26477	-742.06207	308.51224	1035.63562	-722.84119	353.54642	907.80225	-741.51636	306.32697	905.90564	-709.23016	341.11557	841.83643	-706.48218	408.18259	986.11572	-1169.42725	436.12253	981.87372	-910.62183	211.27144	1029.79712	-1059.93384	217.16243	1033.12927	-944.97644	386.37402	674.57562	-1223.08325	389.03882	491.04367	-1207.15063	246.11685	378.23218	-1193.76147	120.38512	194.90729	-1168.37964	88.533	185.95929	-1109.08142	205.11574	71.07115	-1210.92419	404.75009	669.74158	-851.38147	419.8718	464.3385	-910.73132	374.99344	279.52698	-912.96039	341.93927	92.67489	-963.14923	301.97955	41.07663	-1019.71918	491.54654	41.43795	-956.67554	311.01624	1802.64636	-983.40393	2845.17236	1034.19373	-3360.38208	NaN	NaN	NaN
